<svg width="104" height="25" fill="none" xmlns="http://www.w3.org/2000/svg"><path d="M0 4.98v19.127h2.746v-13.85h.177l5.64 13.822h2.28l5.64-13.812h.178v13.84h2.745V4.98h-3.502L9.815 19.848h-.224L3.502 4.981H0zM30.048 24.396c3.128 0 5.342-1.54 5.977-3.875l-2.643-.477c-.504 1.354-1.718 2.046-3.306 2.046-2.39 0-3.997-1.55-4.072-4.315h10.198v-.99c0-5.183-3.1-7.21-6.35-7.21-3.997 0-6.63 3.045-6.63 7.453 0 4.455 2.595 7.368 6.826 7.368zm-4.034-8.713c.112-2.036 1.587-3.8 3.857-3.8 2.166 0 3.586 1.606 3.595 3.8h-7.453zM50.05 13.264c-.58-2.232-2.326-3.689-5.426-3.689-3.241 0-5.538 1.71-5.538 4.25 0 2.036 1.232 3.39 3.922 3.987l2.428.533c1.382.308 2.027.924 2.027 1.82 0 1.112-1.186 1.98-3.017 1.98-1.671 0-2.745-.718-3.082-2.129l-2.699.411c.467 2.54 2.578 3.97 5.8 3.97 3.464 0 5.865-1.84 5.865-4.437 0-2.026-1.29-3.278-3.923-3.885l-2.278-.523c-1.579-.373-2.26-.905-2.251-1.877-.01-1.102 1.186-1.886 2.774-1.886 1.737 0 2.54.962 2.867 1.924l2.53-.449zM60.096 9.762h-2.942V6.326h-2.792v3.436H52.26v2.242h2.102v8.47c-.01 2.605 1.98 3.866 4.183 3.82.888-.01 1.485-.178 1.812-.3l-.504-2.306c-.187.037-.532.121-.98.121-.906 0-1.719-.298-1.719-1.914v-7.891h2.942V9.762zM69.073 24.396c4.044 0 6.686-2.96 6.686-7.396 0-4.464-2.642-7.425-6.686-7.425-4.044 0-6.687 2.96-6.687 7.425 0 4.436 2.643 7.396 6.687 7.396zm.01-2.344c-2.644 0-3.876-2.306-3.876-5.061 0-2.746 1.232-5.08 3.875-5.08 2.624 0 3.857 2.334 3.857 5.08 0 2.755-1.233 5.061-3.857 5.061zM78.296 6.575h.772v-2.49h1.395c.056 0 .109 0 .162-.004l1.345 2.494h.896L81.425 3.94c.812-.277 1.192-.94 1.192-1.787C82.617 1.027 81.945.2 80.45.2h-2.154v6.376zm.772-3.188V.884h1.358c1.033 0 1.431.504 1.431 1.27s-.398 1.233-1.419 1.233h-1.37zM86.817 4.62c0 .896-.685 1.307-1.232 1.307-.61 0-1.046-.448-1.046-1.145V1.793h-.735v3.038c0 1.22.647 1.806 1.544 1.806.722 0 1.195-.386 1.42-.872h.05v.81h.734V1.793h-.735V4.62zM92.284 2.864c-.23-.679-.747-1.133-1.693-1.133-1.009 0-1.756.573-1.756 1.382 0 .66.392 1.102 1.27 1.307l.797.187c.483.112.71.343.71.673 0 .41-.436.747-1.12.747-.602 0-.978-.259-1.109-.772l-.697.174c.171.812.84 1.245 1.818 1.245 1.111 0 1.867-.607 1.867-1.432 0-.666-.417-1.086-1.27-1.295l-.71-.174c-.566-.14-.821-.33-.821-.697 0-.411.436-.71 1.02-.71.642 0 .907.355 1.034.685l.66-.187zM96.864 2.864c-.23-.679-.747-1.133-1.693-1.133-1.009 0-1.756.573-1.756 1.382 0 .66.392 1.102 1.27 1.307l.797.187c.483.112.71.343.71.673 0 .41-.436.747-1.12.747-.602 0-.978-.259-1.109-.772l-.697.174c.17.812.84 1.245 1.818 1.245 1.111 0 1.867-.607 1.867-1.432 0-.666-.417-1.086-1.27-1.295l-.71-.174c-.566-.14-.821-.33-.821-.697 0-.411.436-.71 1.02-.71.642 0 .907.355 1.034.685l.66-.187zM98.057 6.575h.735V1.793h-.735v4.782zm.374-5.579a.513.513 0 00.523-.498A.513.513 0 0098.43 0a.513.513 0 00-.523.498c0 .274.236.498.523.498zM101.545 6.687c.834 0 1.27-.449 1.419-.76h.038v.648h.734v-3.15c0-1.52-1.158-1.694-1.768-1.694-.722 0-1.544.249-1.918 1.12l.698.25c.162-.35.545-.723 1.245-.723.675 0 1.009.358 1.009.972v.024c0 .355-.362.324-1.233.436-.887.115-1.856.312-1.856 1.407 0 .934.723 1.47 1.632 1.47zm.112-.66c-.586 0-1.009-.262-1.009-.772 0-.56.511-.735 1.083-.81.312-.037 1.146-.124 1.271-.274v.673c0 .597-.474 1.183-1.345 1.183z" fill="#fff"/></svg>